<mxfile host="app.diagrams.net" modified="2020-10-29T16:26:08.136Z" agent="5.0 (Windows NT 10.0; Win64; x64) AppleWebKit/537.36 (KHTML, like Gecko) Chrome/86.0.4240.111 Safari/537.36 Edg/86.0.622.51" etag="jeO6IzHKGZ2_N-OMC4SS" version="13.8.7" type="github">
  <diagram id="C5RBs43oDa-KdzZeNtuy" name="Page-1">
    <mxGraphModel dx="1693" dy="522" grid="1" gridSize="10" guides="1" tooltips="1" connect="1" arrows="1" fold="1" page="1" pageScale="1" pageWidth="827" pageHeight="1169" math="0" shadow="0">
      <root>
        <mxCell id="WIyWlLk6GJQsqaUBKTNV-0" />
        <mxCell id="WIyWlLk6GJQsqaUBKTNV-1" parent="WIyWlLk6GJQsqaUBKTNV-0" />
        <mxCell id="PTlVYcGKOcq1J0zGVVaP-2" value="" style="edgeStyle=orthogonalEdgeStyle;rounded=0;orthogonalLoop=1;jettySize=auto;html=1;" edge="1" parent="WIyWlLk6GJQsqaUBKTNV-1" source="PTlVYcGKOcq1J0zGVVaP-0" target="PTlVYcGKOcq1J0zGVVaP-1">
          <mxGeometry relative="1" as="geometry" />
        </mxCell>
        <mxCell id="PTlVYcGKOcq1J0zGVVaP-0" value="Input" style="ellipse;whiteSpace=wrap;html=1;aspect=fixed;" vertex="1" parent="WIyWlLk6GJQsqaUBKTNV-1">
          <mxGeometry x="360" width="80" height="80" as="geometry" />
        </mxCell>
        <mxCell id="PTlVYcGKOcq1J0zGVVaP-4" value="" style="edgeStyle=orthogonalEdgeStyle;rounded=0;orthogonalLoop=1;jettySize=auto;html=1;" edge="1" parent="WIyWlLk6GJQsqaUBKTNV-1" source="PTlVYcGKOcq1J0zGVVaP-1" target="PTlVYcGKOcq1J0zGVVaP-3">
          <mxGeometry relative="1" as="geometry" />
        </mxCell>
        <mxCell id="PTlVYcGKOcq1J0zGVVaP-1" value="Semester: S = 0 -&amp;gt; X&lt;br&gt;Student Name: N = 0 - &amp;gt;Y&lt;br&gt;Grades GPA: G = 0 - Z" style="whiteSpace=wrap;html=1;" vertex="1" parent="WIyWlLk6GJQsqaUBKTNV-1">
          <mxGeometry x="320" y="100" width="160" height="60" as="geometry" />
        </mxCell>
        <mxCell id="PTlVYcGKOcq1J0zGVVaP-8" value="" style="edgeStyle=orthogonalEdgeStyle;rounded=0;orthogonalLoop=1;jettySize=auto;html=1;" edge="1" parent="WIyWlLk6GJQsqaUBKTNV-1" source="PTlVYcGKOcq1J0zGVVaP-3" target="PTlVYcGKOcq1J0zGVVaP-7">
          <mxGeometry relative="1" as="geometry" />
        </mxCell>
        <mxCell id="PTlVYcGKOcq1J0zGVVaP-3" value="User in put&amp;nbsp;&lt;br&gt;X&lt;br&gt;Y&lt;br&gt;Z" style="whiteSpace=wrap;html=1;" vertex="1" parent="WIyWlLk6GJQsqaUBKTNV-1">
          <mxGeometry x="340" y="180" width="120" height="60" as="geometry" />
        </mxCell>
        <mxCell id="PTlVYcGKOcq1J0zGVVaP-10" value="" style="edgeStyle=orthogonalEdgeStyle;rounded=0;orthogonalLoop=1;jettySize=auto;html=1;" edge="1" parent="WIyWlLk6GJQsqaUBKTNV-1" source="PTlVYcGKOcq1J0zGVVaP-7" target="PTlVYcGKOcq1J0zGVVaP-9">
          <mxGeometry relative="1" as="geometry" />
        </mxCell>
        <mxCell id="PTlVYcGKOcq1J0zGVVaP-7" value="Semester&lt;br&gt;S = S+1" style="whiteSpace=wrap;html=1;" vertex="1" parent="WIyWlLk6GJQsqaUBKTNV-1">
          <mxGeometry x="340" y="260" width="120" height="60" as="geometry" />
        </mxCell>
        <mxCell id="PTlVYcGKOcq1J0zGVVaP-21" style="edgeStyle=orthogonalEdgeStyle;rounded=0;orthogonalLoop=1;jettySize=auto;html=1;entryX=0.5;entryY=0;entryDx=0;entryDy=0;" edge="1" parent="WIyWlLk6GJQsqaUBKTNV-1" source="PTlVYcGKOcq1J0zGVVaP-9" target="PTlVYcGKOcq1J0zGVVaP-19">
          <mxGeometry relative="1" as="geometry" />
        </mxCell>
        <mxCell id="PTlVYcGKOcq1J0zGVVaP-9" value="Student Name&lt;br&gt;N = N + 1" style="whiteSpace=wrap;html=1;" vertex="1" parent="WIyWlLk6GJQsqaUBKTNV-1">
          <mxGeometry x="340" y="340" width="120" height="60" as="geometry" />
        </mxCell>
        <mxCell id="PTlVYcGKOcq1J0zGVVaP-23" value="YES" style="edgeStyle=orthogonalEdgeStyle;rounded=0;orthogonalLoop=1;jettySize=auto;html=1;" edge="1" parent="WIyWlLk6GJQsqaUBKTNV-1" source="PTlVYcGKOcq1J0zGVVaP-19" target="PTlVYcGKOcq1J0zGVVaP-22">
          <mxGeometry relative="1" as="geometry" />
        </mxCell>
        <mxCell id="PTlVYcGKOcq1J0zGVVaP-60" value="NO" style="edgeStyle=orthogonalEdgeStyle;rounded=0;orthogonalLoop=1;jettySize=auto;html=1;" edge="1" parent="WIyWlLk6GJQsqaUBKTNV-1" source="PTlVYcGKOcq1J0zGVVaP-19" target="PTlVYcGKOcq1J0zGVVaP-59">
          <mxGeometry relative="1" as="geometry" />
        </mxCell>
        <mxCell id="PTlVYcGKOcq1J0zGVVaP-19" value="N &amp;lt; = Y" style="rhombus;whiteSpace=wrap;html=1;" vertex="1" parent="WIyWlLk6GJQsqaUBKTNV-1">
          <mxGeometry x="747" y="430" width="80" height="80" as="geometry" />
        </mxCell>
        <mxCell id="PTlVYcGKOcq1J0zGVVaP-27" value="NO" style="edgeStyle=orthogonalEdgeStyle;rounded=0;orthogonalLoop=1;jettySize=auto;html=1;" edge="1" parent="WIyWlLk6GJQsqaUBKTNV-1" source="PTlVYcGKOcq1J0zGVVaP-22" target="PTlVYcGKOcq1J0zGVVaP-26">
          <mxGeometry relative="1" as="geometry" />
        </mxCell>
        <mxCell id="PTlVYcGKOcq1J0zGVVaP-40" value="YES" style="edgeStyle=orthogonalEdgeStyle;rounded=0;orthogonalLoop=1;jettySize=auto;html=1;" edge="1" parent="WIyWlLk6GJQsqaUBKTNV-1" source="PTlVYcGKOcq1J0zGVVaP-22" target="PTlVYcGKOcq1J0zGVVaP-39">
          <mxGeometry relative="1" as="geometry" />
        </mxCell>
        <mxCell id="PTlVYcGKOcq1J0zGVVaP-22" value="100&amp;gt;= z &amp;gt; 90" style="rhombus;whiteSpace=wrap;html=1;" vertex="1" parent="WIyWlLk6GJQsqaUBKTNV-1">
          <mxGeometry x="637" y="430" width="80" height="80" as="geometry" />
        </mxCell>
        <mxCell id="PTlVYcGKOcq1J0zGVVaP-29" value="NO" style="edgeStyle=orthogonalEdgeStyle;rounded=0;orthogonalLoop=1;jettySize=auto;html=1;" edge="1" parent="WIyWlLk6GJQsqaUBKTNV-1" source="PTlVYcGKOcq1J0zGVVaP-26" target="PTlVYcGKOcq1J0zGVVaP-28">
          <mxGeometry relative="1" as="geometry" />
        </mxCell>
        <mxCell id="PTlVYcGKOcq1J0zGVVaP-50" value="YES" style="edgeStyle=orthogonalEdgeStyle;rounded=0;orthogonalLoop=1;jettySize=auto;html=1;exitX=0.5;exitY=1;exitDx=0;exitDy=0;entryX=0.5;entryY=0;entryDx=0;entryDy=0;" edge="1" parent="WIyWlLk6GJQsqaUBKTNV-1" source="PTlVYcGKOcq1J0zGVVaP-26" target="PTlVYcGKOcq1J0zGVVaP-41">
          <mxGeometry relative="1" as="geometry" />
        </mxCell>
        <mxCell id="PTlVYcGKOcq1J0zGVVaP-26" value="90&amp;gt;= Z &amp;gt; 80" style="rhombus;whiteSpace=wrap;html=1;" vertex="1" parent="WIyWlLk6GJQsqaUBKTNV-1">
          <mxGeometry x="527" y="430" width="80" height="80" as="geometry" />
        </mxCell>
        <mxCell id="PTlVYcGKOcq1J0zGVVaP-31" value="NO" style="edgeStyle=orthogonalEdgeStyle;rounded=0;orthogonalLoop=1;jettySize=auto;html=1;" edge="1" parent="WIyWlLk6GJQsqaUBKTNV-1" source="PTlVYcGKOcq1J0zGVVaP-28" target="PTlVYcGKOcq1J0zGVVaP-30">
          <mxGeometry relative="1" as="geometry" />
        </mxCell>
        <mxCell id="PTlVYcGKOcq1J0zGVVaP-49" value="YES" style="edgeStyle=orthogonalEdgeStyle;rounded=0;orthogonalLoop=1;jettySize=auto;html=1;exitX=0.5;exitY=1;exitDx=0;exitDy=0;entryX=0.5;entryY=0;entryDx=0;entryDy=0;" edge="1" parent="WIyWlLk6GJQsqaUBKTNV-1" source="PTlVYcGKOcq1J0zGVVaP-28" target="PTlVYcGKOcq1J0zGVVaP-42">
          <mxGeometry relative="1" as="geometry" />
        </mxCell>
        <mxCell id="PTlVYcGKOcq1J0zGVVaP-28" value="80&amp;gt;= Z &amp;gt; 70" style="rhombus;whiteSpace=wrap;html=1;" vertex="1" parent="WIyWlLk6GJQsqaUBKTNV-1">
          <mxGeometry x="417" y="430" width="80" height="80" as="geometry" />
        </mxCell>
        <mxCell id="PTlVYcGKOcq1J0zGVVaP-33" value="NO" style="edgeStyle=orthogonalEdgeStyle;rounded=0;orthogonalLoop=1;jettySize=auto;html=1;" edge="1" parent="WIyWlLk6GJQsqaUBKTNV-1" source="PTlVYcGKOcq1J0zGVVaP-30" target="PTlVYcGKOcq1J0zGVVaP-32">
          <mxGeometry relative="1" as="geometry" />
        </mxCell>
        <mxCell id="PTlVYcGKOcq1J0zGVVaP-48" value="YES" style="edgeStyle=orthogonalEdgeStyle;rounded=0;orthogonalLoop=1;jettySize=auto;html=1;exitX=0.5;exitY=1;exitDx=0;exitDy=0;entryX=0.5;entryY=0;entryDx=0;entryDy=0;" edge="1" parent="WIyWlLk6GJQsqaUBKTNV-1" source="PTlVYcGKOcq1J0zGVVaP-30" target="PTlVYcGKOcq1J0zGVVaP-43">
          <mxGeometry relative="1" as="geometry" />
        </mxCell>
        <mxCell id="PTlVYcGKOcq1J0zGVVaP-30" value="70 &amp;gt;= Z &amp;gt;60" style="rhombus;whiteSpace=wrap;html=1;" vertex="1" parent="WIyWlLk6GJQsqaUBKTNV-1">
          <mxGeometry x="307" y="430" width="80" height="80" as="geometry" />
        </mxCell>
        <mxCell id="PTlVYcGKOcq1J0zGVVaP-35" value="NO" style="edgeStyle=orthogonalEdgeStyle;rounded=0;orthogonalLoop=1;jettySize=auto;html=1;" edge="1" parent="WIyWlLk6GJQsqaUBKTNV-1" source="PTlVYcGKOcq1J0zGVVaP-32" target="PTlVYcGKOcq1J0zGVVaP-34">
          <mxGeometry relative="1" as="geometry" />
        </mxCell>
        <mxCell id="PTlVYcGKOcq1J0zGVVaP-47" value="YES" style="edgeStyle=orthogonalEdgeStyle;rounded=0;orthogonalLoop=1;jettySize=auto;html=1;exitX=0.5;exitY=1;exitDx=0;exitDy=0;entryX=0.5;entryY=0;entryDx=0;entryDy=0;" edge="1" parent="WIyWlLk6GJQsqaUBKTNV-1" source="PTlVYcGKOcq1J0zGVVaP-32" target="PTlVYcGKOcq1J0zGVVaP-44">
          <mxGeometry relative="1" as="geometry" />
        </mxCell>
        <mxCell id="PTlVYcGKOcq1J0zGVVaP-32" value="60 &amp;gt;=Z &amp;gt;50" style="rhombus;whiteSpace=wrap;html=1;" vertex="1" parent="WIyWlLk6GJQsqaUBKTNV-1">
          <mxGeometry x="197" y="430" width="80" height="80" as="geometry" />
        </mxCell>
        <mxCell id="PTlVYcGKOcq1J0zGVVaP-37" value="NO" style="edgeStyle=orthogonalEdgeStyle;rounded=0;orthogonalLoop=1;jettySize=auto;html=1;" edge="1" parent="WIyWlLk6GJQsqaUBKTNV-1" source="PTlVYcGKOcq1J0zGVVaP-34" target="PTlVYcGKOcq1J0zGVVaP-36">
          <mxGeometry relative="1" as="geometry" />
        </mxCell>
        <mxCell id="PTlVYcGKOcq1J0zGVVaP-46" value="YES" style="edgeStyle=orthogonalEdgeStyle;rounded=0;orthogonalLoop=1;jettySize=auto;html=1;entryX=0.5;entryY=0;entryDx=0;entryDy=0;" edge="1" parent="WIyWlLk6GJQsqaUBKTNV-1" source="PTlVYcGKOcq1J0zGVVaP-34" target="PTlVYcGKOcq1J0zGVVaP-45">
          <mxGeometry relative="1" as="geometry" />
        </mxCell>
        <mxCell id="PTlVYcGKOcq1J0zGVVaP-34" value="50&amp;gt;= Z &amp;gt;0" style="rhombus;whiteSpace=wrap;html=1;" vertex="1" parent="WIyWlLk6GJQsqaUBKTNV-1">
          <mxGeometry x="87" y="430" width="80" height="80" as="geometry" />
        </mxCell>
        <mxCell id="PTlVYcGKOcq1J0zGVVaP-51" style="edgeStyle=orthogonalEdgeStyle;rounded=0;orthogonalLoop=1;jettySize=auto;html=1;entryX=0;entryY=0.5;entryDx=0;entryDy=0;" edge="1" parent="WIyWlLk6GJQsqaUBKTNV-1" source="PTlVYcGKOcq1J0zGVVaP-36" target="PTlVYcGKOcq1J0zGVVaP-9">
          <mxGeometry relative="1" as="geometry">
            <Array as="points">
              <mxPoint y="370" />
            </Array>
          </mxGeometry>
        </mxCell>
        <mxCell id="PTlVYcGKOcq1J0zGVVaP-58" style="edgeStyle=orthogonalEdgeStyle;rounded=0;orthogonalLoop=1;jettySize=auto;html=1;exitX=0.5;exitY=0;exitDx=0;exitDy=0;" edge="1" parent="WIyWlLk6GJQsqaUBKTNV-1" source="PTlVYcGKOcq1J0zGVVaP-36">
          <mxGeometry relative="1" as="geometry">
            <mxPoint y="370" as="targetPoint" />
          </mxGeometry>
        </mxCell>
        <mxCell id="PTlVYcGKOcq1J0zGVVaP-36" value="Asking User recheck and re input" style="whiteSpace=wrap;html=1;" vertex="1" parent="WIyWlLk6GJQsqaUBKTNV-1">
          <mxGeometry x="-60" y="440" width="120" height="60" as="geometry" />
        </mxCell>
        <mxCell id="PTlVYcGKOcq1J0zGVVaP-52" style="edgeStyle=orthogonalEdgeStyle;rounded=0;orthogonalLoop=1;jettySize=auto;html=1;entryX=0;entryY=0.5;entryDx=0;entryDy=0;" edge="1" parent="WIyWlLk6GJQsqaUBKTNV-1" source="PTlVYcGKOcq1J0zGVVaP-39" target="PTlVYcGKOcq1J0zGVVaP-9">
          <mxGeometry relative="1" as="geometry">
            <Array as="points">
              <mxPoint x="677" y="670" />
              <mxPoint x="-80" y="670" />
              <mxPoint x="-80" y="370" />
            </Array>
          </mxGeometry>
        </mxCell>
        <mxCell id="PTlVYcGKOcq1J0zGVVaP-39" value="Print out&lt;br&gt;A" style="whiteSpace=wrap;html=1;" vertex="1" parent="WIyWlLk6GJQsqaUBKTNV-1">
          <mxGeometry x="650" y="540" width="54" height="60" as="geometry" />
        </mxCell>
        <mxCell id="PTlVYcGKOcq1J0zGVVaP-53" style="edgeStyle=orthogonalEdgeStyle;rounded=0;orthogonalLoop=1;jettySize=auto;html=1;entryX=0;entryY=0.5;entryDx=0;entryDy=0;" edge="1" parent="WIyWlLk6GJQsqaUBKTNV-1" source="PTlVYcGKOcq1J0zGVVaP-41" target="PTlVYcGKOcq1J0zGVVaP-9">
          <mxGeometry relative="1" as="geometry">
            <Array as="points">
              <mxPoint x="567" y="670" />
              <mxPoint x="-80" y="670" />
              <mxPoint x="-80" y="370" />
            </Array>
          </mxGeometry>
        </mxCell>
        <mxCell id="PTlVYcGKOcq1J0zGVVaP-41" value="Print out&lt;br&gt;B" style="whiteSpace=wrap;html=1;" vertex="1" parent="WIyWlLk6GJQsqaUBKTNV-1">
          <mxGeometry x="540" y="540" width="54" height="60" as="geometry" />
        </mxCell>
        <mxCell id="PTlVYcGKOcq1J0zGVVaP-54" style="edgeStyle=orthogonalEdgeStyle;rounded=0;orthogonalLoop=1;jettySize=auto;html=1;entryX=0;entryY=0.5;entryDx=0;entryDy=0;" edge="1" parent="WIyWlLk6GJQsqaUBKTNV-1" source="PTlVYcGKOcq1J0zGVVaP-42" target="PTlVYcGKOcq1J0zGVVaP-9">
          <mxGeometry relative="1" as="geometry">
            <Array as="points">
              <mxPoint x="457" y="670" />
              <mxPoint x="-80" y="670" />
              <mxPoint x="-80" y="370" />
            </Array>
          </mxGeometry>
        </mxCell>
        <mxCell id="PTlVYcGKOcq1J0zGVVaP-42" value="Print out&lt;br&gt;C" style="whiteSpace=wrap;html=1;" vertex="1" parent="WIyWlLk6GJQsqaUBKTNV-1">
          <mxGeometry x="430" y="540" width="54" height="60" as="geometry" />
        </mxCell>
        <mxCell id="PTlVYcGKOcq1J0zGVVaP-55" style="edgeStyle=orthogonalEdgeStyle;rounded=0;orthogonalLoop=1;jettySize=auto;html=1;entryX=0;entryY=0.5;entryDx=0;entryDy=0;" edge="1" parent="WIyWlLk6GJQsqaUBKTNV-1" source="PTlVYcGKOcq1J0zGVVaP-43" target="PTlVYcGKOcq1J0zGVVaP-9">
          <mxGeometry relative="1" as="geometry">
            <Array as="points">
              <mxPoint x="347" y="670" />
              <mxPoint x="-80" y="670" />
              <mxPoint x="-80" y="370" />
            </Array>
          </mxGeometry>
        </mxCell>
        <mxCell id="PTlVYcGKOcq1J0zGVVaP-43" value="Print out&lt;br&gt;D" style="whiteSpace=wrap;html=1;" vertex="1" parent="WIyWlLk6GJQsqaUBKTNV-1">
          <mxGeometry x="320" y="540" width="54" height="60" as="geometry" />
        </mxCell>
        <mxCell id="PTlVYcGKOcq1J0zGVVaP-56" style="edgeStyle=orthogonalEdgeStyle;rounded=0;orthogonalLoop=1;jettySize=auto;html=1;entryX=0;entryY=0.5;entryDx=0;entryDy=0;" edge="1" parent="WIyWlLk6GJQsqaUBKTNV-1" source="PTlVYcGKOcq1J0zGVVaP-44" target="PTlVYcGKOcq1J0zGVVaP-9">
          <mxGeometry relative="1" as="geometry">
            <Array as="points">
              <mxPoint x="237" y="670" />
              <mxPoint x="-80" y="670" />
              <mxPoint x="-80" y="370" />
            </Array>
          </mxGeometry>
        </mxCell>
        <mxCell id="PTlVYcGKOcq1J0zGVVaP-44" value="Print out&lt;br&gt;E" style="whiteSpace=wrap;html=1;" vertex="1" parent="WIyWlLk6GJQsqaUBKTNV-1">
          <mxGeometry x="210" y="540" width="54" height="60" as="geometry" />
        </mxCell>
        <mxCell id="PTlVYcGKOcq1J0zGVVaP-57" style="edgeStyle=orthogonalEdgeStyle;rounded=0;orthogonalLoop=1;jettySize=auto;html=1;entryX=0;entryY=0.5;entryDx=0;entryDy=0;" edge="1" parent="WIyWlLk6GJQsqaUBKTNV-1" source="PTlVYcGKOcq1J0zGVVaP-45" target="PTlVYcGKOcq1J0zGVVaP-9">
          <mxGeometry relative="1" as="geometry">
            <Array as="points">
              <mxPoint x="127" y="670" />
              <mxPoint x="-80" y="670" />
              <mxPoint x="-80" y="370" />
            </Array>
          </mxGeometry>
        </mxCell>
        <mxCell id="PTlVYcGKOcq1J0zGVVaP-45" value="Print out&lt;br&gt;F" style="whiteSpace=wrap;html=1;" vertex="1" parent="WIyWlLk6GJQsqaUBKTNV-1">
          <mxGeometry x="100" y="540" width="54" height="60" as="geometry" />
        </mxCell>
        <mxCell id="PTlVYcGKOcq1J0zGVVaP-61" value="YES" style="edgeStyle=orthogonalEdgeStyle;rounded=0;orthogonalLoop=1;jettySize=auto;html=1;entryX=0;entryY=0.5;entryDx=0;entryDy=0;" edge="1" parent="WIyWlLk6GJQsqaUBKTNV-1" source="PTlVYcGKOcq1J0zGVVaP-59" target="PTlVYcGKOcq1J0zGVVaP-7">
          <mxGeometry x="-0.8782" relative="1" as="geometry">
            <Array as="points">
              <mxPoint x="-120" y="720" />
              <mxPoint x="-120" y="290" />
            </Array>
            <mxPoint as="offset" />
          </mxGeometry>
        </mxCell>
        <mxCell id="PTlVYcGKOcq1J0zGVVaP-63" value="" style="edgeStyle=orthogonalEdgeStyle;rounded=0;orthogonalLoop=1;jettySize=auto;html=1;" edge="1" parent="WIyWlLk6GJQsqaUBKTNV-1" source="PTlVYcGKOcq1J0zGVVaP-59" target="PTlVYcGKOcq1J0zGVVaP-62">
          <mxGeometry relative="1" as="geometry" />
        </mxCell>
        <mxCell id="PTlVYcGKOcq1J0zGVVaP-59" value="S&amp;lt; X" style="rhombus;whiteSpace=wrap;html=1;" vertex="1" parent="WIyWlLk6GJQsqaUBKTNV-1">
          <mxGeometry x="747" y="680" width="80" height="80" as="geometry" />
        </mxCell>
        <mxCell id="PTlVYcGKOcq1J0zGVVaP-62" value="Print out&lt;br&gt;(Semester, Student Name, GPA,)" style="whiteSpace=wrap;html=1;" vertex="1" parent="WIyWlLk6GJQsqaUBKTNV-1">
          <mxGeometry x="680" y="840" width="120" height="60" as="geometry" />
        </mxCell>
      </root>
    </mxGraphModel>
  </diagram>
</mxfile>
